<mxfile host="app.diagrams.net" modified="2023-08-29T12:15:34.667Z" agent="Mozilla/5.0 (Windows NT 10.0; Win64; x64) AppleWebKit/537.36 (KHTML, like Gecko) Chrome/116.0.0.0 Safari/537.36" etag="8Ze0Zl14l3ibLnqXwFjt" version="21.6.9" type="github" pages="2">
  <diagram name="第 1 页" id="w1SS2VsJ4Wertk8D80-j">
    <mxGraphModel dx="1050" dy="574" grid="1" gridSize="10" guides="1" tooltips="1" connect="1" arrows="1" fold="1" page="1" pageScale="1" pageWidth="827" pageHeight="1169" math="0" shadow="0">
      <root>
        <mxCell id="0" />
        <mxCell id="1" parent="0" />
        <UserObject label="1231231" link="data:page/id,pu1t-cKZelptn9FDowxA" id="TTZKYu51hcve-FtEBlVZ-1">
          <mxCell style="ellipse;whiteSpace=wrap;html=1;aspect=fixed;" parent="1" vertex="1">
            <mxGeometry x="370" y="260" width="80" height="80" as="geometry" />
          </mxCell>
        </UserObject>
      </root>
    </mxGraphModel>
  </diagram>
  <diagram id="pu1t-cKZelptn9FDowxA" name="第 2 页">
    <mxGraphModel dx="1050" dy="574" grid="1" gridSize="10" guides="1" tooltips="1" connect="1" arrows="1" fold="1" page="1" pageScale="1" pageWidth="827" pageHeight="1169" math="0" shadow="0">
      <root>
        <mxCell id="0" />
        <mxCell id="1" parent="0" />
        <UserObject label="" link="https://app.diagrams.net/#Wc83bc6ff62c19ada%2FC83BC6FF62C19ADA!3041#%7B%22pageId%22%3A%22pu1t-cKZelptn9FDowxA%22%7D" linkTarget="_blank" id="nUO5Zk9yDzekW-ZeClYs-1">
          <mxCell style="rounded=1;whiteSpace=wrap;html=1;" parent="1" vertex="1">
            <mxGeometry x="80" y="130" width="120" height="60" as="geometry" />
          </mxCell>
        </UserObject>
        <UserObject label="" link="https://app.diagrams.net/#Wc83bc6ff62c19ada%2FC83BC6FF62C19ADA!3041#%7B%22pageId%22%3A%22pu1t-cKZelptn9FDowxA%22%7D" id="SVxkbiO6EN6SNNa0q0eQ-1">
          <mxCell style="rounded=1;whiteSpace=wrap;html=1;" vertex="1" parent="1">
            <mxGeometry x="350" y="270" width="120" height="60" as="geometry" />
          </mxCell>
        </UserObject>
      </root>
    </mxGraphModel>
  </diagram>
</mxfile>
